<svg width="230" height="241" data-v-423bf9ae="" xmlns="http://www.w3.org/2000/svg" viewBox="0 0 289.67743320086146 60" class="font"><!----><!----><!----><g data-v-423bf9ae="" id="b05aca56-711c-40c0-b9ea-96290afa2744" fill="#FB0200" transform="matrix(4.608295106398049,0,0,4.608295106398049,-3.870966348526167,-17.419354655084504)"><path d="M4.33 8.68C4.65 8.68 4.96 8.78 5.17 9.03L5.19 9.03L5.19 7.13C5.03 7.04 4.75 6.99 4.56 6.99C3.79 6.99 3.26 7.42 2.94 7.88L2.94 7.13L0.84 7.13L0.84 13.30L2.94 13.30L2.94 10.22C2.94 9.48 3.54 8.68 4.33 8.68ZM8.08 9.48C8.08 9.48 8.15 8.33 9.46 8.33C10.74 8.33 10.84 9.48 10.84 9.48ZM12.85 10.08C12.85 8.11 11.30 6.99 9.42 6.99C7.35 6.99 5.82 8.29 5.82 10.22C5.82 12.18 7.29 13.44 9.42 13.44C11.06 13.44 12.38 12.63 12.74 11.00L10.60 11.00C10.58 11.45 10.12 11.94 9.38 11.94C8.55 11.94 8.05 11.19 8.05 10.47L12.84 10.47C12.84 10.35 12.85 10.21 12.85 10.08ZM17.33 8.62C18.06 8.62 18.52 9.00 18.55 9.60L20.64 9.60C20.54 8.18 19.26 6.99 17.26 6.99C15.20 6.99 13.83 8.46 13.83 10.22C13.83 11.98 15.12 13.44 17.26 13.44C19.14 13.44 20.38 12.38 20.59 11.00L18.55 11.00C18.48 11.56 17.98 11.84 17.33 11.84C16.35 11.84 16.07 10.95 16.07 10.23C16.07 9.53 16.38 8.62 17.33 8.62ZM25.09 11.84C23.95 11.84 23.65 11.02 23.65 10.23C23.65 9.46 23.98 8.64 25.09 8.64C26.18 8.64 26.52 9.46 26.52 10.23C26.52 11.02 26.21 11.84 25.09 11.84ZM25.09 7.00C23.16 7.00 21.56 8.29 21.56 10.22C21.56 12.19 23.11 13.43 25.09 13.43C27.05 13.43 28.60 12.19 28.60 10.22C28.60 8.29 27.01 7.00 25.09 7.00ZM33.29 11.76C32.45 11.76 31.82 11.03 31.82 10.21C31.82 9.39 32.45 8.67 33.29 8.67C34.13 8.67 34.76 9.39 34.76 10.21C34.76 11.03 34.13 11.76 33.29 11.76ZM34.76 7.88C34.16 7.18 33.43 6.99 32.65 6.99C30.90 6.99 29.58 8.50 29.58 10.21C29.58 11.91 30.90 13.44 32.65 13.44C33.43 13.44 34.34 13.19 34.76 12.54L34.76 13.52C34.76 14.41 34.10 15.25 33.18 15.25C32.51 15.25 31.93 14.81 31.78 14.08L29.68 14.08C29.78 15.96 31.61 16.80 33.29 16.80C35.25 16.80 36.86 15.32 36.86 13.29L36.86 7.13L34.76 7.13ZM44.86 9.80C44.86 8.12 44.18 6.99 42.53 6.99C41.72 6.99 41.06 7.35 40.64 7.88L40.64 7.13L38.54 7.13L38.54 13.30L40.64 13.30L40.64 10.22C40.64 9.38 41.16 8.68 41.82 8.68C42.48 8.68 42.76 9.07 42.76 9.80L42.76 13.30L44.86 13.30ZM46.21 5.01C46.21 5.68 46.76 6.24 47.45 6.24C48.12 6.24 48.68 5.68 48.68 5.01C48.68 4.33 48.12 3.78 47.45 3.78C46.76 3.78 46.21 4.33 46.21 5.01ZM48.50 13.30L48.50 7.13L46.40 7.13L46.40 13.30ZM55.97 11.63L52.98 11.63L55.94 7.13L49.76 7.13L49.76 8.72L52.72 8.72L49.48 13.30L55.97 13.30ZM58.93 9.48C58.93 9.48 59.00 8.33 60.31 8.33C61.59 8.33 61.68 9.48 61.68 9.48ZM63.70 10.08C63.70 8.11 62.15 6.99 60.27 6.99C58.20 6.99 56.67 8.29 56.67 10.22C56.67 12.18 58.14 13.44 60.27 13.44C61.91 13.44 63.22 12.63 63.59 11.00L61.45 11.00C61.43 11.45 60.97 11.94 60.23 11.94C59.40 11.94 58.90 11.19 58.90 10.47L63.69 10.47C63.69 10.35 63.70 10.21 63.70 10.08Z"></path></g><!----><!----></svg>